<svg xmlns="http://www.w3.org/2000/svg" viewBox="0 0 180 180"><ellipse cx="90" cy="144" rx="62" ry="22" fill="#d6a12d" opacity=".35"/><ellipse cx="90" cy="140" rx="54" ry="16" fill="#fff5ce" stroke="#d6a12d" stroke-width="5"/><circle cx="60" cy="82" r="22" fill="#2d292a"/><circle cx="121" cy="82" r="22" fill="#b66a3f"/><path d="M27 125c3-25 15-38 33-38s31 13 34 38" fill="#c84143"/><path d="M87 125c3-25 16-38 34-38s30 13 33 38" fill="#f0b735"/><path d="M69 36h65a14 14 0 0114 14v19a14 14 0 01-14 14h-24l-14 13 3-13H69a14 14 0 01-14-14V50a14 14 0 0114-14z" fill="#c84143"/><circle cx="85" cy="59" r="4" fill="#fff"/><circle cx="102" cy="59" r="4" fill="#fff"/><circle cx="119" cy="59" r="4" fill="#fff"/></svg>
